<svg width="220" height="139" viewBox="0 0 220 139" fill="none" xmlns="http://www.w3.org/2000/svg">
<g clip-path="url(#clip0_1697_12292)">
<path d="M85.1773 0.0562134V48.3782C93.7118 46.6906 100.071 39.3214 103.027 31.1646H110C106.709 43.0904 97.1144 52.3723 85.1773 55.0162V138.216H127.738V0.0562134H85.1773ZM106.486 17.4386C104.533 17.4386 102.916 15.8635 102.916 13.8384C102.916 11.8695 104.478 10.2382 106.486 10.2382C108.494 10.2382 110.056 11.8695 110.056 13.8384C110 15.8635 108.438 17.4386 106.486 17.4386Z" fill="#FDB933"/>
<path d="M70.9532 48.3783V0H28.3923V138.159H70.9532V55.0162C59.0161 52.3723 49.4775 43.0904 46.1307 31.1646H53.1033C56.0597 39.3214 62.6418 46.6907 70.9532 48.3783ZM49.7006 17.6074C47.7483 17.6074 46.1307 16.0323 46.1307 14.0072C46.1307 12.0383 47.7483 10.407 49.7006 10.407C51.653 10.407 53.2706 12.0383 53.2706 14.0072C53.2148 15.9761 51.653 17.6074 49.7006 17.6074Z" fill="#ED1B2F"/>
<path fill-rule="evenodd" clip-rule="evenodd" d="M220 138.216H177.272L134.878 69.1359L177.439 0.0562134H220L177.439 69.1359L220 138.216Z" fill="#FDB933"/>
<path d="M0 20.8139V45.003C0 45.003 17.069 41.2903 21.3083 31.1646V3.2627C21.3083 3.2627 14.4473 16.3698 0 20.8139Z" fill="#ED1B2F"/>
</g>
<defs>
<clipPath id="clip0_1697_12292">
<rect width="220" height="138.216" fill="white"/>
</clipPath>
</defs>
</svg>
